<mxfile host="app.diagrams.net" agent="Mozilla/5.0 (Windows NT 10.0; Win64; x64) AppleWebKit/537.36 (KHTML, like Gecko) Chrome/130.0.0.0 Safari/537.36" version="24.8.6">
  <diagram name="Página-1" id="gPE6XubsE3XUHxgLWa60">
    <mxGraphModel dx="2440" dy="696" grid="1" gridSize="10" guides="1" tooltips="1" connect="1" arrows="1" fold="1" page="1" pageScale="1" pageWidth="827" pageHeight="1169" math="0" shadow="0">
      <root>
        <mxCell id="0" />
        <mxCell id="1" parent="0" />
        <mxCell id="MuThcHYDiLIp8S5R1Z5z-1" value="Administrador" style="swimlane;fontStyle=0;childLayout=stackLayout;horizontal=1;startSize=26;horizontalStack=0;resizeParent=1;resizeParentMax=0;resizeLast=0;collapsible=1;marginBottom=0;align=center;fontSize=14;" vertex="1" parent="1">
          <mxGeometry x="100" y="910" width="160" height="176" as="geometry" />
        </mxCell>
        <mxCell id="MuThcHYDiLIp8S5R1Z5z-2" value="+nombre :string" style="text;strokeColor=none;fillColor=none;spacingLeft=4;spacingRight=4;overflow=hidden;rotatable=0;points=[[0,0.5],[1,0.5]];portConstraint=eastwest;fontSize=12;whiteSpace=wrap;html=1;" vertex="1" parent="MuThcHYDiLIp8S5R1Z5z-1">
          <mxGeometry y="26" width="160" height="30" as="geometry" />
        </mxCell>
        <mxCell id="MuThcHYDiLIp8S5R1Z5z-3" value="+dirección: string" style="text;strokeColor=none;fillColor=none;spacingLeft=4;spacingRight=4;overflow=hidden;rotatable=0;points=[[0,0.5],[1,0.5]];portConstraint=eastwest;fontSize=12;whiteSpace=wrap;html=1;" vertex="1" parent="MuThcHYDiLIp8S5R1Z5z-1">
          <mxGeometry y="56" width="160" height="30" as="geometry" />
        </mxCell>
        <mxCell id="MuThcHYDiLIp8S5R1Z5z-4" value="+teléfono: string" style="text;strokeColor=none;fillColor=none;spacingLeft=4;spacingRight=4;overflow=hidden;rotatable=0;points=[[0,0.5],[1,0.5]];portConstraint=eastwest;fontSize=12;whiteSpace=wrap;html=1;" vertex="1" parent="MuThcHYDiLIp8S5R1Z5z-1">
          <mxGeometry y="86" width="160" height="30" as="geometry" />
        </mxCell>
        <mxCell id="MuThcHYDiLIp8S5R1Z5z-33" value="+número empleado:string" style="text;strokeColor=none;fillColor=none;spacingLeft=4;spacingRight=4;overflow=hidden;rotatable=0;points=[[0,0.5],[1,0.5]];portConstraint=eastwest;fontSize=12;whiteSpace=wrap;html=1;" vertex="1" parent="MuThcHYDiLIp8S5R1Z5z-1">
          <mxGeometry y="116" width="160" height="30" as="geometry" />
        </mxCell>
        <mxCell id="MuThcHYDiLIp8S5R1Z5z-34" value="+email: String" style="text;strokeColor=none;fillColor=none;spacingLeft=4;spacingRight=4;overflow=hidden;rotatable=0;points=[[0,0.5],[1,0.5]];portConstraint=eastwest;fontSize=12;whiteSpace=wrap;html=1;" vertex="1" parent="MuThcHYDiLIp8S5R1Z5z-1">
          <mxGeometry y="146" width="160" height="30" as="geometry" />
        </mxCell>
        <mxCell id="MuThcHYDiLIp8S5R1Z5z-5" value="Facturación" style="swimlane;fontStyle=0;childLayout=stackLayout;horizontal=1;startSize=26;horizontalStack=0;resizeParent=1;resizeParentMax=0;resizeLast=0;collapsible=1;marginBottom=0;align=center;fontSize=14;" vertex="1" parent="1">
          <mxGeometry x="360" y="590" width="160" height="206" as="geometry" />
        </mxCell>
        <mxCell id="MuThcHYDiLIp8S5R1Z5z-6" value="+ID: interger" style="text;strokeColor=none;fillColor=none;spacingLeft=4;spacingRight=4;overflow=hidden;rotatable=0;points=[[0,0.5],[1,0.5]];portConstraint=eastwest;fontSize=12;whiteSpace=wrap;html=1;" vertex="1" parent="MuThcHYDiLIp8S5R1Z5z-5">
          <mxGeometry y="26" width="160" height="30" as="geometry" />
        </mxCell>
        <mxCell id="MuThcHYDiLIp8S5R1Z5z-7" value="+DNI: String" style="text;strokeColor=none;fillColor=none;spacingLeft=4;spacingRight=4;overflow=hidden;rotatable=0;points=[[0,0.5],[1,0.5]];portConstraint=eastwest;fontSize=12;whiteSpace=wrap;html=1;" vertex="1" parent="MuThcHYDiLIp8S5R1Z5z-5">
          <mxGeometry y="56" width="160" height="30" as="geometry" />
        </mxCell>
        <mxCell id="MuThcHYDiLIp8S5R1Z5z-8" value="+Precio sin IVA: float" style="text;strokeColor=none;fillColor=none;spacingLeft=4;spacingRight=4;overflow=hidden;rotatable=0;points=[[0,0.5],[1,0.5]];portConstraint=eastwest;fontSize=12;whiteSpace=wrap;html=1;" vertex="1" parent="MuThcHYDiLIp8S5R1Z5z-5">
          <mxGeometry y="86" width="160" height="30" as="geometry" />
        </mxCell>
        <mxCell id="MuThcHYDiLIp8S5R1Z5z-26" value="+Precio con IVA: float" style="text;strokeColor=none;fillColor=none;spacingLeft=4;spacingRight=4;overflow=hidden;rotatable=0;points=[[0,0.5],[1,0.5]];portConstraint=eastwest;fontSize=12;whiteSpace=wrap;html=1;" vertex="1" parent="MuThcHYDiLIp8S5R1Z5z-5">
          <mxGeometry y="116" width="160" height="30" as="geometry" />
        </mxCell>
        <mxCell id="MuThcHYDiLIp8S5R1Z5z-27" value="+recorrido :String" style="text;strokeColor=none;fillColor=none;spacingLeft=4;spacingRight=4;overflow=hidden;rotatable=0;points=[[0,0.5],[1,0.5]];portConstraint=eastwest;fontSize=12;whiteSpace=wrap;html=1;" vertex="1" parent="MuThcHYDiLIp8S5R1Z5z-5">
          <mxGeometry y="146" width="160" height="30" as="geometry" />
        </mxCell>
        <mxCell id="MuThcHYDiLIp8S5R1Z5z-30" value="+descripción: String" style="text;strokeColor=none;fillColor=none;spacingLeft=4;spacingRight=4;overflow=hidden;rotatable=0;points=[[0,0.5],[1,0.5]];portConstraint=eastwest;fontSize=12;whiteSpace=wrap;html=1;" vertex="1" parent="MuThcHYDiLIp8S5R1Z5z-5">
          <mxGeometry y="176" width="160" height="30" as="geometry" />
        </mxCell>
        <mxCell id="MuThcHYDiLIp8S5R1Z5z-9" value="Guía" style="swimlane;fontStyle=0;childLayout=stackLayout;horizontal=1;startSize=26;horizontalStack=0;resizeParent=1;resizeParentMax=0;resizeLast=0;collapsible=1;marginBottom=0;align=center;fontSize=14;" vertex="1" parent="1">
          <mxGeometry x="-150" y="585" width="160" height="188" as="geometry" />
        </mxCell>
        <mxCell id="MuThcHYDiLIp8S5R1Z5z-10" value="+nombre:string" style="text;strokeColor=none;fillColor=none;spacingLeft=4;spacingRight=4;overflow=hidden;rotatable=0;points=[[0,0.5],[1,0.5]];portConstraint=eastwest;fontSize=12;whiteSpace=wrap;html=1;" vertex="1" parent="MuThcHYDiLIp8S5R1Z5z-9">
          <mxGeometry y="26" width="160" height="30" as="geometry" />
        </mxCell>
        <mxCell id="MuThcHYDiLIp8S5R1Z5z-11" value="+dirección:string" style="text;strokeColor=none;fillColor=none;spacingLeft=4;spacingRight=4;overflow=hidden;rotatable=0;points=[[0,0.5],[1,0.5]];portConstraint=eastwest;fontSize=12;whiteSpace=wrap;html=1;" vertex="1" parent="MuThcHYDiLIp8S5R1Z5z-9">
          <mxGeometry y="56" width="160" height="30" as="geometry" />
        </mxCell>
        <mxCell id="MuThcHYDiLIp8S5R1Z5z-12" value="+teléfono: string" style="text;strokeColor=none;fillColor=none;spacingLeft=4;spacingRight=4;overflow=hidden;rotatable=0;points=[[0,0.5],[1,0.5]];portConstraint=eastwest;fontSize=12;whiteSpace=wrap;html=1;" vertex="1" parent="MuThcHYDiLIp8S5R1Z5z-9">
          <mxGeometry y="86" width="160" height="30" as="geometry" />
        </mxCell>
        <mxCell id="MuThcHYDiLIp8S5R1Z5z-31" value="+número empleado: interger" style="text;strokeColor=none;fillColor=none;spacingLeft=4;spacingRight=4;overflow=hidden;rotatable=0;points=[[0,0.5],[1,0.5]];portConstraint=eastwest;fontSize=12;whiteSpace=wrap;html=1;" vertex="1" parent="MuThcHYDiLIp8S5R1Z5z-9">
          <mxGeometry y="116" width="160" height="36" as="geometry" />
        </mxCell>
        <mxCell id="MuThcHYDiLIp8S5R1Z5z-32" value="+idiomas: [string]" style="text;strokeColor=none;fillColor=none;spacingLeft=4;spacingRight=4;overflow=hidden;rotatable=0;points=[[0,0.5],[1,0.5]];portConstraint=eastwest;fontSize=12;whiteSpace=wrap;html=1;" vertex="1" parent="MuThcHYDiLIp8S5R1Z5z-9">
          <mxGeometry y="152" width="160" height="36" as="geometry" />
        </mxCell>
        <mxCell id="MuThcHYDiLIp8S5R1Z5z-13" value="Excursión" style="swimlane;fontStyle=0;childLayout=stackLayout;horizontal=1;startSize=26;horizontalStack=0;resizeParent=1;resizeParentMax=0;resizeLast=0;collapsible=1;marginBottom=0;align=center;fontSize=14;" vertex="1" parent="1">
          <mxGeometry x="90" y="280" width="160" height="230" as="geometry" />
        </mxCell>
        <mxCell id="MuThcHYDiLIp8S5R1Z5z-14" value="+recorrido: String" style="text;strokeColor=none;fillColor=none;spacingLeft=4;spacingRight=4;overflow=hidden;rotatable=0;points=[[0,0.5],[1,0.5]];portConstraint=eastwest;fontSize=12;whiteSpace=wrap;html=1;" vertex="1" parent="MuThcHYDiLIp8S5R1Z5z-13">
          <mxGeometry y="26" width="160" height="30" as="geometry" />
        </mxCell>
        <mxCell id="MuThcHYDiLIp8S5R1Z5z-15" value="+monumentos:[string]" style="text;strokeColor=none;fillColor=none;spacingLeft=4;spacingRight=4;overflow=hidden;rotatable=0;points=[[0,0.5],[1,0.5]];portConstraint=eastwest;fontSize=12;whiteSpace=wrap;html=1;" vertex="1" parent="MuThcHYDiLIp8S5R1Z5z-13">
          <mxGeometry y="56" width="160" height="30" as="geometry" />
        </mxCell>
        <mxCell id="MuThcHYDiLIp8S5R1Z5z-16" value="+maximo de personas :interger" style="text;strokeColor=none;fillColor=none;spacingLeft=4;spacingRight=4;overflow=hidden;rotatable=0;points=[[0,0.5],[1,0.5]];portConstraint=eastwest;fontSize=12;whiteSpace=wrap;html=1;" vertex="1" parent="MuThcHYDiLIp8S5R1Z5z-13">
          <mxGeometry y="86" width="160" height="36" as="geometry" />
        </mxCell>
        <mxCell id="MuThcHYDiLIp8S5R1Z5z-23" value="+edades permitidas: [interger]" style="text;strokeColor=none;fillColor=none;spacingLeft=4;spacingRight=4;overflow=hidden;rotatable=0;points=[[0,0.5],[1,0.5]];portConstraint=eastwest;fontSize=12;whiteSpace=wrap;html=1;" vertex="1" parent="MuThcHYDiLIp8S5R1Z5z-13">
          <mxGeometry y="122" width="160" height="36" as="geometry" />
        </mxCell>
        <mxCell id="MuThcHYDiLIp8S5R1Z5z-24" value="+edades permitidas: [interger]" style="text;strokeColor=none;fillColor=none;spacingLeft=4;spacingRight=4;overflow=hidden;rotatable=0;points=[[0,0.5],[1,0.5]];portConstraint=eastwest;fontSize=12;whiteSpace=wrap;html=1;" vertex="1" parent="MuThcHYDiLIp8S5R1Z5z-13">
          <mxGeometry y="158" width="160" height="36" as="geometry" />
        </mxCell>
        <mxCell id="MuThcHYDiLIp8S5R1Z5z-25" value="+idiomas: [string]" style="text;strokeColor=none;fillColor=none;spacingLeft=4;spacingRight=4;overflow=hidden;rotatable=0;points=[[0,0.5],[1,0.5]];portConstraint=eastwest;fontSize=12;whiteSpace=wrap;html=1;" vertex="1" parent="MuThcHYDiLIp8S5R1Z5z-13">
          <mxGeometry y="194" width="160" height="36" as="geometry" />
        </mxCell>
        <mxCell id="MuThcHYDiLIp8S5R1Z5z-17" value="Grupo" style="swimlane;fontStyle=0;childLayout=stackLayout;horizontal=1;startSize=26;horizontalStack=0;resizeParent=1;resizeParentMax=0;resizeLast=0;collapsible=1;marginBottom=0;align=center;fontSize=14;" vertex="1" parent="1">
          <mxGeometry x="90" y="24" width="160" height="146" as="geometry" />
        </mxCell>
        <mxCell id="MuThcHYDiLIp8S5R1Z5z-18" value="+tamaño máximo:Interger" style="text;strokeColor=none;fillColor=none;spacingLeft=4;spacingRight=4;overflow=hidden;rotatable=0;points=[[0,0.5],[1,0.5]];portConstraint=eastwest;fontSize=12;whiteSpace=wrap;html=1;" vertex="1" parent="MuThcHYDiLIp8S5R1Z5z-17">
          <mxGeometry y="26" width="160" height="30" as="geometry" />
        </mxCell>
        <mxCell id="MuThcHYDiLIp8S5R1Z5z-19" value="+idioma: string" style="text;strokeColor=none;fillColor=none;spacingLeft=4;spacingRight=4;overflow=hidden;rotatable=0;points=[[0,0.5],[1,0.5]];portConstraint=eastwest;fontSize=12;whiteSpace=wrap;html=1;" vertex="1" parent="MuThcHYDiLIp8S5R1Z5z-17">
          <mxGeometry y="56" width="160" height="30" as="geometry" />
        </mxCell>
        <mxCell id="MuThcHYDiLIp8S5R1Z5z-21" value="+edad permitida: interger" style="text;strokeColor=none;fillColor=none;spacingLeft=4;spacingRight=4;overflow=hidden;rotatable=0;points=[[0,0.5],[1,0.5]];portConstraint=eastwest;fontSize=12;whiteSpace=wrap;html=1;" vertex="1" parent="MuThcHYDiLIp8S5R1Z5z-17">
          <mxGeometry y="86" width="160" height="30" as="geometry" />
        </mxCell>
        <mxCell id="MuThcHYDiLIp8S5R1Z5z-22" value="+accesibilidad : boolean" style="text;strokeColor=none;fillColor=none;spacingLeft=4;spacingRight=4;overflow=hidden;rotatable=0;points=[[0,0.5],[1,0.5]];portConstraint=eastwest;fontSize=12;whiteSpace=wrap;html=1;" vertex="1" parent="MuThcHYDiLIp8S5R1Z5z-17">
          <mxGeometry y="116" width="160" height="30" as="geometry" />
        </mxCell>
        <mxCell id="MuThcHYDiLIp8S5R1Z5z-35" value="" style="endArrow=classic;html=1;rounded=0;entryX=0.433;entryY=1.039;entryDx=0;entryDy=0;entryPerimeter=0;exitX=0.36;exitY=-0.001;exitDx=0;exitDy=0;exitPerimeter=0;" edge="1" parent="1" source="MuThcHYDiLIp8S5R1Z5z-1" target="MuThcHYDiLIp8S5R1Z5z-25">
          <mxGeometry width="50" height="50" relative="1" as="geometry">
            <mxPoint x="120" y="700" as="sourcePoint" />
            <mxPoint x="170" y="650" as="targetPoint" />
          </mxGeometry>
        </mxCell>
        <mxCell id="MuThcHYDiLIp8S5R1Z5z-36" value="" style="endArrow=classic;html=1;rounded=0;exitX=0.75;exitY=0;exitDx=0;exitDy=0;entryX=0;entryY=0.5;entryDx=0;entryDy=0;" edge="1" parent="1" source="MuThcHYDiLIp8S5R1Z5z-9" target="MuThcHYDiLIp8S5R1Z5z-25">
          <mxGeometry width="50" height="50" relative="1" as="geometry">
            <mxPoint x="120" y="700" as="sourcePoint" />
            <mxPoint x="170" y="650" as="targetPoint" />
          </mxGeometry>
        </mxCell>
        <mxCell id="MuThcHYDiLIp8S5R1Z5z-37" value="" style="endArrow=classic;html=1;rounded=0;entryX=1;entryY=0.5;entryDx=0;entryDy=0;exitX=0.25;exitY=0;exitDx=0;exitDy=0;" edge="1" parent="1" source="MuThcHYDiLIp8S5R1Z5z-5" target="MuThcHYDiLIp8S5R1Z5z-25">
          <mxGeometry width="50" height="50" relative="1" as="geometry">
            <mxPoint x="120" y="700" as="sourcePoint" />
            <mxPoint x="170" y="650" as="targetPoint" />
          </mxGeometry>
        </mxCell>
        <mxCell id="MuThcHYDiLIp8S5R1Z5z-38" value="" style="endArrow=classic;html=1;rounded=0;exitX=0;exitY=0;exitDx=0;exitDy=0;entryX=0.802;entryY=1.044;entryDx=0;entryDy=0;entryPerimeter=0;" edge="1" parent="1" source="MuThcHYDiLIp8S5R1Z5z-1" target="MuThcHYDiLIp8S5R1Z5z-32">
          <mxGeometry width="50" height="50" relative="1" as="geometry">
            <mxPoint x="120" y="700" as="sourcePoint" />
            <mxPoint x="170" y="650" as="targetPoint" />
          </mxGeometry>
        </mxCell>
        <mxCell id="MuThcHYDiLIp8S5R1Z5z-39" value="" style="endArrow=classic;html=1;rounded=0;exitX=1;exitY=0;exitDx=0;exitDy=0;entryX=0.165;entryY=1.06;entryDx=0;entryDy=0;entryPerimeter=0;" edge="1" parent="1" source="MuThcHYDiLIp8S5R1Z5z-1" target="MuThcHYDiLIp8S5R1Z5z-30">
          <mxGeometry width="50" height="50" relative="1" as="geometry">
            <mxPoint x="240" y="700" as="sourcePoint" />
            <mxPoint x="290" y="650" as="targetPoint" />
          </mxGeometry>
        </mxCell>
        <mxCell id="MuThcHYDiLIp8S5R1Z5z-40" value="" style="endArrow=classic;html=1;rounded=0;exitX=0.408;exitY=-0.017;exitDx=0;exitDy=0;exitPerimeter=0;entryX=0.403;entryY=0.993;entryDx=0;entryDy=0;entryPerimeter=0;" edge="1" parent="1" source="MuThcHYDiLIp8S5R1Z5z-13" target="MuThcHYDiLIp8S5R1Z5z-22">
          <mxGeometry width="50" height="50" relative="1" as="geometry">
            <mxPoint x="160" y="200" as="sourcePoint" />
            <mxPoint x="155" y="180" as="targetPoint" />
          </mxGeometry>
        </mxCell>
        <mxCell id="MuThcHYDiLIp8S5R1Z5z-42" value="Divide en" style="text;html=1;align=center;verticalAlign=middle;whiteSpace=wrap;rounded=0;" vertex="1" parent="1">
          <mxGeometry x="160" y="210" width="60" height="30" as="geometry" />
        </mxCell>
        <mxCell id="MuThcHYDiLIp8S5R1Z5z-43" value="Genera" style="text;html=1;align=center;verticalAlign=middle;whiteSpace=wrap;rounded=0;" vertex="1" parent="1">
          <mxGeometry x="270" y="820" width="60" height="30" as="geometry" />
        </mxCell>
        <mxCell id="MuThcHYDiLIp8S5R1Z5z-44" value="Gestiona" style="text;html=1;align=center;verticalAlign=middle;whiteSpace=wrap;rounded=0;" vertex="1" parent="1">
          <mxGeometry x="40" y="820" width="60" height="30" as="geometry" />
        </mxCell>
        <mxCell id="MuThcHYDiLIp8S5R1Z5z-45" value="Asociada a" style="text;html=1;align=center;verticalAlign=middle;whiteSpace=wrap;rounded=0;" vertex="1" parent="1">
          <mxGeometry x="250" y="540" width="70" height="30" as="geometry" />
        </mxCell>
        <mxCell id="MuThcHYDiLIp8S5R1Z5z-46" value="Gestiona" style="text;html=1;align=center;verticalAlign=middle;whiteSpace=wrap;rounded=0;" vertex="1" parent="1">
          <mxGeometry x="160" y="678" width="60" height="30" as="geometry" />
        </mxCell>
        <mxCell id="MuThcHYDiLIp8S5R1Z5z-47" value="Asociado a" style="text;html=1;align=center;verticalAlign=middle;whiteSpace=wrap;rounded=0;" vertex="1" parent="1">
          <mxGeometry x="10" y="540" width="80" height="30" as="geometry" />
        </mxCell>
      </root>
    </mxGraphModel>
  </diagram>
</mxfile>
